<?xml version="1.0" encoding="UTF-8"?>
<svg width="61px" height="28px" viewBox="0 0 61 28" version="1.1" xmlns="http://www.w3.org/2000/svg" xmlns:xlink="http://www.w3.org/1999/xlink">
    <!-- Generator: sketchtool 51.2 (57519) - http://www.bohemiancoding.com/sketch -->
    <title>06E211D1-7AF3-48B0-A572-A551523955D5</title>
    <desc>Created with sketchtool.</desc>
    <defs></defs>
    <g id="Black-/-White" stroke="none" stroke-width="1" fill="none" fill-rule="evenodd">
        <g id="Black" transform="translate(-885.000000, -1785.000000)">
            <g id="HOW-IT-WORK" transform="translate(57.000000, 1506.000000)">
                <g id="2" transform="translate(828.000000, 273.000000)">
                    <g id="ancher" transform="translate(0.000000, 7.000000)">
                        <path d="M3.15517241,12.05292 C4.30073334,4.28127571 8.52202349,0.265055655 15.8190428,0.00425986341 C26.7645719,-0.386933824 34.0285406,26.2953229 44.0238082,26.2931034 C49.9140509,26.2917955 54.1704827,21.5450677 56.7931034,12.05292" id="Path-7" stroke="#F1F1F1" stroke-linecap="round" stroke-linejoin="round" stroke-dasharray="2,2"></path>
                        <circle id="Oval-2" fill="#F1F1F1" cx="57.8448276" cy="10.5172414" r="3.15517241"></circle>
                        <circle id="Oval-2-Copy" fill="#F1F1F1" cx="3.15517241" cy="10.5172414" r="3.15517241"></circle>
                        <path d="M46.5384162,16.8275862 C46.9755156,16.8196983 47.3368721,16.4726293 47.3274043,16.0387931 L47.3274043,11.3060345 C47.3274043,10.8706207 46.9755156,10.5172414 46.5384162,10.5172414 L41.8044878,10.5172414 C40.7835372,10.5172414 40.7409319,12.0948276 41.8044878,12.0948276 L44.6290651,12.0948276 L41.260086,15.4708621 C40.7472438,15.9709569 41.1022884,16.8275862 41.8060658,16.8275862 C42.0112027,16.8275862 42.2321193,16.7297759 42.3741372,16.5830603 L45.7510061,13.1959828 L45.7510061,16.0356379 C45.7446942,16.4805172 46.0950049,16.832319 46.5399942,16.824431 L46.5384162,16.8275862 Z" id="Path" fill="#F1F1F1" transform="translate(44.172414, 13.672414) rotate(132.000000) translate(-44.172414, -13.672414) "></path>
                        <path d="M12.6207356,11.3074873 L12.6207356,16.0390006 C12.6207356,16.4727227 12.9767366,16.8275862 13.4083484,16.8275862 L18.1340253,16.8275862 C19.157922,16.8275862 19.2004531,15.2504151 18.1340253,15.2504151 L15.3190971,15.2504151 L18.6837791,11.8752689 C19.1973027,11.3737285 18.8602044,10.5189017 18.138751,10.5189017 C17.9339717,10.5236333 17.7165905,10.613532 17.5716698,10.7602089 L14.2006869,14.1448181 L14.2006869,11.3059101 C14.208563,10.8643022 13.8572877,10.5110159 13.4130741,10.5173246 C12.9767366,10.5252104 12.6160099,10.8721881 12.6207356,11.3074873 Z" id="Path" fill="#F1F1F1" transform="translate(15.775862, 13.672414) rotate(-225.000000) translate(-15.775862, -13.672414) "></path>
                    </g>
                </g>
            </g>
        </g>
    </g>
</svg>