<?xml version="1.0" encoding="UTF-8"?>
<svg width="132px" height="38px" viewBox="0 0 132 38" version="1.1" xmlns="http://www.w3.org/2000/svg" xmlns:xlink="http://www.w3.org/1999/xlink">
    <!-- Generator: sketchtool 51.2 (57519) - http://www.bohemiancoding.com/sketch -->
    <title>1116CF31-D0BB-43D4-9BA2-6AC8D28A2C5F</title>
    <desc>Created with sketchtool.</desc>
    <defs></defs>
    <g id="Design" stroke="none" stroke-width="1" fill="none" fill-rule="evenodd">
        <g id="Black" transform="translate(-1038.000000, -21.000000)">
            <g id="Header" transform="translate(0.000000, -51.000000)">
                <g id="Menu" transform="translate(139.000000, 63.000000)">
                    <g id="Badge-/apple-outline--white" transform="translate(899.000000, 9.000000)">
                        <g id="Apple-badge--outline">
                            <path d="M1,18.8492063 C1,28.7084779 8.99248055,36.6984127 18.8536304,36.6984127 L55.8608986,36.6984127 C64.4809528,36.6984127 64.4809528,36.6984127 74.7210197,36.6984127 C84.9545222,36.6984127 84.9545222,36.6984127 93.5711255,36.6984127 L113.143404,36.6984127 C123.008722,36.6984127 131,28.7087705 131,18.8492063 C131,8.98979955 123.012483,1 113.15776,1 L18.8422404,1 C8.98627162,1 1,8.990155 1,18.8492063 Z" id="bg" stroke="#F1F1F1" stroke-width="2"></path>
                            <g id="Apple" transform="translate(13.323064, 4.758565)" fill="#F1F1F1">
                                <path d="M16.8630018,13.3079422 C16.8350615,10.2185617 19.4229657,8.71502846 19.541053,8.64521784 C18.0755053,6.53370701 15.8039063,6.24508697 15.0052355,6.22164311 C13.0973875,6.02367268 11.2470017,7.3500745 10.2748902,7.3500745 C9.28327315,7.3500745 7.78662205,6.24091917 6.17346518,6.27374058 C4.09797544,6.30552005 2.15586108,7.4928216 1.09096668,9.33707236 C-1.10682777,13.0979894 0.5321607,18.623969 2.63822662,21.6638569 C3.69152317,23.1533238 4.92247784,24.8147124 6.53352601,24.7558423 C8.1097806,24.6928043 8.69863558,23.7639063 10.6006846,23.7639063 C12.4853368,23.7639063 13.0383439,24.7558423 14.6815498,24.7188531 C16.3732558,24.6928043 17.4381502,23.2231345 18.4545444,21.7211641 C19.6723197,20.0160136 20.1610114,18.334307 20.1805169,18.2483462 C20.1415059,18.2348008 16.8962138,17.0099891 16.8630018,13.3079422" id="Fill-3"></path>
                                <path d="M13.7589927,4.22214186 C14.6066908,3.17446155 15.187111,1.74907452 15.0257953,0.302848498 C13.799058,0.356508901 12.2644503,1.14161791 11.3803771,2.16637533 C10.5985759,3.06922464 9.9005956,4.54931402 10.0808896,5.94083769 C11.4589262,6.04242778 12.8743923,5.25367194 13.7589927,4.22214186" id="Fill-4"></path>
                                <path d="M39.6933889,24.5422426 L37.4908499,24.5422426 L36.2841453,20.7953919 L32.0899374,20.7953919 L30.9401678,24.5422426 L28.795618,24.5422426 L32.9518693,11.7856539 L35.5186865,11.7856539 L39.6933889,24.5422426 L39.6933889,24.5422426 L39.6933889,24.5422426 Z M35.9203942,19.22309 L34.8291411,15.8919772 C34.7136896,15.5517806 34.4964934,14.7505214 34.1780794,13.4887205 L34.1390684,13.4887205 C34.0114919,14.0315762 33.8064207,14.8328354 33.5264905,15.8919772 L32.4536885,19.22309 L35.9203942,19.22309 L35.9203942,19.22309 L35.9203942,19.22309 Z" id="Fill-5"></path>
                                <path d="M50.3613113,19.8300256 C50.3613113,21.393992 49.9316633,22.6307861 49.071313,23.5388452 C48.3011097,24.3468771 47.343759,24.7501116 46.201897,24.7501116 C44.9693608,24.7501116 44.0826517,24.3161396 43.5444056,23.4455907 L43.5444056,28.2719012 L41.4762963,28.2719012 L41.4762963,18.3671284 C41.4762963,17.38457 41.4499375,16.3770047 41.3998559,15.3439117 L43.2186112,15.3439117 L43.3340626,16.8015992 L43.3725464,16.8015992 C44.0620919,15.7033843 45.1090623,15.1537559 46.5134577,15.1537559 C47.6115642,15.1537559 48.5283223,15.5825182 49.2616233,16.4405636 C49.99387,17.3001721 50.3613113,18.4296454 50.3613113,19.8300256 L50.3613113,19.8300256 L50.3613113,19.8300256 Z M48.2547182,19.904525 C48.2547182,19.0094903 48.0507013,18.2712691 47.6416132,17.6893402 C47.1945684,17.0844885 46.5941156,16.7818021 45.841309,16.7818021 C45.3310032,16.7818021 44.867616,16.950077 44.4532561,17.2829799 C44.0378418,17.6184876 43.7663464,18.0566274 43.6392972,18.5989622 C43.5755089,18.852156 43.5433512,19.058462 43.5433512,19.2210061 L43.5433512,20.7557978 C43.5433512,21.4242085 43.7510584,21.9884242 44.1659454,22.4505288 C44.5813597,22.9105496 45.1206602,23.1418624 45.7838469,23.1418624 C46.5630122,23.1418624 47.169264,22.8438648 47.6026022,22.2520374 C48.0375219,21.6586472 48.2547182,20.876664 48.2547182,19.904525 L48.2547182,19.904525 L48.2547182,19.904525 Z" id="Fill-6"></path>
                                <path d="M61.0671903,19.8300256 C61.0671903,21.393992 60.6375423,22.6307861 59.777192,23.5388452 C59.0059343,24.3468771 58.0496381,24.7501116 56.9067217,24.7501116 C55.6741855,24.7501116 54.7874764,24.3161396 54.2492303,23.4455907 L54.2492303,28.2719012 L52.181121,28.2719012 L52.181121,18.3671284 C52.181121,17.38457 52.1547622,16.3770047 52.1046805,15.3439117 L53.9229086,15.3439117 L54.0383601,16.8015992 L54.0773711,16.8015992 C54.7658622,15.7033843 55.8128326,15.1537559 57.2182824,15.1537559 C58.3153345,15.1537559 59.2320926,15.5825182 59.9669752,16.4405636 C60.6986947,17.3001721 61.0671903,18.4296454 61.0671903,19.8300256 L61.0671903,19.8300256 L61.0671903,19.8300256 Z M58.9590157,19.904525 C58.9590157,19.0094903 58.7544716,18.2712691 58.3453835,17.6893402 C57.8983387,17.0844885 57.2994674,16.7818021 56.5466609,16.7818021 C56.0368822,16.7818021 55.5729678,16.950077 55.1570264,17.2829799 C54.7416121,17.6184876 54.4711711,18.0566274 54.3441218,18.5989622 C54.2808608,18.852156 54.2471215,19.058462 54.2471215,19.2210061 L54.2471215,20.7557978 C54.2471215,21.4242085 54.455883,21.9884242 54.8686614,22.4505288 C55.2840757,22.9100286 55.8233761,23.1418624 56.4886716,23.1418624 C57.2688912,23.1418624 57.8746158,22.8438648 58.3074269,22.2520374 C58.7418194,21.6586472 58.9590157,20.876664 58.9590157,19.904525 L58.9590157,19.904525 L58.9590157,19.904525 Z" id="Fill-7"></path>
                                <path d="M73.0367089,20.9636668 C73.0367089,22.0498992 72.652398,22.9329515 71.8890479,23.6143865 C71.0492575,24.3583385 69.8762921,24.7308355 68.3727877,24.7308355 C66.9842076,24.7308355 65.8702858,24.4667013 65.0304954,23.9363489 L65.5086435,22.2327614 C66.4153853,22.7641557 67.4117469,23.0288109 68.4961468,23.0288109 C69.2758392,23.0288109 69.882091,22.8542843 70.3149021,22.5078361 C70.7482403,22.1608669 70.9675453,21.6971993 70.9675453,21.1183963 C70.9675453,20.5995054 70.7861969,20.1655334 70.4303535,19.8117915 C70.0724014,19.4590916 69.4809105,19.1303565 68.6495548,18.8281911 C66.3895537,17.9951524 65.2582352,16.7765924 65.2582352,15.1740739 C65.2582352,14.1274356 65.6578341,13.270432 66.4554506,12.6004585 C67.2525399,11.9310058 68.3100538,11.59654 69.6253566,11.59654 C70.7999035,11.59654 71.7788683,11.7991992 72.5553977,12.2024337 L72.0366571,13.8685111 C71.3054647,13.477259 70.479908,13.2818935 69.5562966,13.2818935 C68.8272129,13.2818935 68.2547004,13.4590249 67.8450851,13.8117248 C67.5008395,14.1274356 67.3263444,14.511394 67.3263444,14.9677679 C67.3263444,15.4710296 67.5250896,15.8893723 67.9209983,16.2170655 C68.2641896,16.5187099 68.8910012,16.8479659 69.7966886,17.2006659 C70.9085016,17.6434944 71.7250964,18.1592595 72.2480544,18.7516078 C72.7747027,19.3439562 73.0367089,20.0826984 73.0367089,20.9636668" id="Fill-8"></path>
                                <path d="M79.8915713,16.8776615 L77.6120646,16.8776615 L77.6120646,21.3434574 C77.6120646,22.4791825 78.0137723,23.046003 78.8187692,23.046003 C79.1883192,23.046003 79.4946082,23.0152655 79.7371089,22.9511856 L79.794571,24.5031695 C79.3870644,24.6532103 78.8509269,24.7292726 78.1861587,24.7292726 C77.3695639,24.7292726 76.7311544,24.4828515 76.2704031,23.9900094 C75.8117605,23.4976882 75.5808576,22.6719431 75.5808576,21.5101693 L75.5808576,16.8734937 L74.2228537,16.8734937 L74.2228537,15.3397439 L75.5808576,15.3397439 L75.5808576,13.6559534 L77.6120646,13.0500597 L77.6120646,15.3397439 L79.8915713,15.3397439 L79.8915713,16.8776615" id="Fill-9"></path>
                                <path d="M90.1562044,19.8670148 C90.1562044,21.2809404 89.7465891,22.4421932 88.9299943,23.3497313 C88.0754429,24.2843601 86.9383255,24.7501116 85.5212779,24.7501116 C84.1537848,24.7501116 83.0662218,24.3025942 82.255426,23.4080805 C81.4446301,22.5120039 81.0392322,21.3825305 81.0392322,20.0207024 C81.0392322,18.5953154 81.4578095,17.4278109 82.2933826,16.5197518 C83.1305372,15.6111718 84.2576383,15.1568818 85.6746859,15.1568818 C87.0405975,15.1568818 88.1371225,15.6054411 88.967951,16.5009967 C89.76135,17.3694617 90.1562044,18.4905994 90.1562044,19.8670148 L90.1562044,19.8670148 L90.1562044,19.8670148 Z M88.0121819,19.9144236 C88.0121819,19.0714863 87.8281976,18.3488943 87.4586477,17.7440426 C87.0247823,17.0136359 86.4042968,16.6484326 85.599827,16.6484326 C84.7716344,16.6484326 84.136388,17.0136359 83.7035769,17.7440426 C83.3329726,18.3488943 83.1489884,19.0839897 83.1489884,19.9524547 C83.1489884,20.7959129 83.3329726,21.5205888 83.7035769,22.1238776 C84.1506217,22.8542843 84.7742703,23.2194876 85.5824302,23.2194876 C86.3731934,23.2194876 86.9926246,22.8464697 87.4407237,22.1056435 C87.8213444,21.4862045 88.0121819,20.7589237 88.0121819,19.9144236 L88.0121819,19.9144236 L88.0121819,19.9144236 Z" id="Fill-10"></path>
                                <path d="M96.8808545,17.1412747 C96.6763104,17.1037646 96.4570054,17.0844885 96.2287384,17.0844885 C95.5017635,17.0844885 94.9387401,17.3548744 94.5433585,17.8992931 C94.1996401,18.3785899 94.0272538,18.9844836 94.0272538,19.7159322 L94.0272538,24.5422426 L91.9591445,24.5422426 L91.9591445,18.2405315 C91.9591445,17.1813898 91.9385846,16.2149816 91.8990465,15.3444327 L93.700405,15.3444327 L93.7757911,17.1048065 L93.8332532,17.1048065 C94.0525582,16.4999548 94.3957494,16.0118014 94.8670442,15.6465981 C95.3277956,15.317863 95.8254492,15.1537559 96.3621138,15.1537559 C96.5529513,15.1537559 96.7258649,15.1673013 96.8787458,15.1912661 L96.8808545,17.1412747" id="Fill-11"></path>
                                <path d="M106.129621,19.5075422 C106.129621,19.8737875 106.10537,20.1827256 106.054234,20.4348774 L99.8499066,20.4348774 C99.8731023,21.3434574 100.174119,22.0394797 100.750322,22.5187765 C101.272753,22.9464968 101.949119,23.1611385 102.779421,23.1611385 C103.69776,23.1611385 104.535969,23.0173494 105.28983,22.7266455 L105.613516,24.1442179 C104.733133,24.5240085 103.693016,24.7131224 102.493164,24.7131224 C101.049758,24.7131224 99.9168579,24.2932167 99.0923555,23.4549682 C98.2699618,22.6167198 97.8577106,21.4893304 97.8577106,20.0769677 C97.8577106,18.6911747 98.2409671,17.5361736 99.0080074,16.6150902 C99.8114228,15.6314898 100.89635,15.1396896 102.262261,15.1396896 C103.603923,15.1396896 104.619263,15.6314898 105.308808,16.6150902 C105.854962,17.3939475 106.129621,18.3603558 106.129621,19.5075422 L106.129621,19.5075422 L106.129621,19.5075422 Z M104.157457,18.9777109 C104.172218,18.3707752 104.036207,17.8482375 103.756277,17.4064509 C103.398325,16.8370255 102.847426,16.5536152 102.108853,16.5536152 C101.433014,16.5536152 100.882116,16.8302528 100.463012,17.3866539 C100.118766,17.8284405 99.9136948,18.3593138 99.8509609,18.975627 L104.157457,18.9777109 L104.157457,18.9777109 L104.157457,18.9777109 Z" id="Fill-12"></path>
                                <path d="M29.7498056,0.491441372 L32.22384,0.491441372 C32.7246567,0.491441372 33.1637938,0.54770665 33.5412514,0.65971623 C33.9181819,0.772246785 34.2450307,0.92176655 34.5223249,1.10983845 C34.7996192,1.29843132 35.0299949,1.51463586 35.213452,1.75897304 C35.3974362,2.00278924 35.5424094,2.25337812 35.6494261,2.51073966 C35.7559155,2.76810121 35.8328831,3.02546276 35.8798017,3.28282431 C35.9261932,3.54018585 35.9499161,3.77775036 35.9499161,3.99551782 C35.9499161,4.44459809 35.8660952,4.87857009 35.6995077,5.29743383 C35.5323931,5.71629756 35.2851478,6.08931551 34.958299,6.4159667 C34.6309231,6.7426179 34.224998,7.00466822 33.7410509,7.20263864 C33.2571039,7.40060906 32.6977707,7.49959427 32.0635787,7.49959427 L29.7498056,7.49959427 L29.7498056,0.491441372 L29.7498056,0.491441372 L29.7498056,0.491441372 Z M30.7113736,6.60872738 L31.92335,6.60872738 C32.3303294,6.60872738 32.7162219,6.554546 33.0799729,6.44566227 C33.443724,6.33677853 33.7626651,6.17319245 34.0367964,5.95542499 C34.3104004,5.73765752 34.5275967,5.46570868 34.687858,5.13905749 C34.8481194,4.81240629 34.92825,4.43105275 34.92825,3.99551782 C34.92825,3.77149866 34.8913478,3.50892737 34.8180704,3.20884589 C34.7442658,2.90824343 34.6061458,2.62327022 34.4021289,2.35236333 C34.1986392,2.08197741 33.9166004,1.85222753 33.5560124,1.6646766 C33.1954243,1.47608373 32.7278197,1.38230827 32.1537257,1.38230827 L30.7113736,1.38230827 L30.7113736,6.60872738 L30.7113736,6.60872738 L30.7113736,6.60872738 Z" id="Fill-50"></path>
                                <path d="M36.6705649,5.15364478 C36.6705649,4.81084337 36.7359347,4.49044387 36.866147,4.19348824 C36.9963593,3.89653261 37.1750718,3.63604521 37.4022844,3.41150508 C37.6289699,3.18748592 37.8962478,3.01087546 38.2035911,2.88219469 C38.5104072,2.75351392 38.8409462,2.68891304 39.1952081,2.68891304 C39.5489429,2.68891304 39.8794819,2.75351392 40.186298,2.88219469 C40.4936413,3.01087546 40.7609192,3.18748592 40.9876047,3.41150508 C41.2148173,3.63604521 41.3935298,3.89653261 41.5237421,4.19348824 C41.6539544,4.49044387 41.7193242,4.81084337 41.7193242,5.15364478 C41.7193242,5.49696717 41.6539544,5.81840862 41.5237421,6.11901107 C41.3935298,6.41909255 41.2148173,6.67957995 40.9876047,6.90099423 C40.7609192,7.12188755 40.4936413,7.2964141 40.186298,7.42509487 C39.8794819,7.55377565 39.5489429,7.61837652 39.1952081,7.61837652 C38.8409462,7.61837652 38.5104072,7.55377565 38.2035911,7.42509487 C37.8962478,7.2964141 37.6289699,7.12188755 37.4022844,6.90099423 C37.1750718,6.67957995 36.9963593,6.41909255 36.866147,6.11901107 C36.7359347,5.81840862 36.6705649,5.49696717 36.6705649,5.15364478 L36.6705649,5.15364478 L36.6705649,5.15364478 Z M37.6326601,5.15364478 C37.6326601,5.39120929 37.6690352,5.61053968 37.7428398,5.81215692 C37.8161172,6.01377416 37.9194435,6.18517487 38.0533461,6.32635904 C38.1867215,6.46858516 38.3501459,6.58059474 38.5441464,6.66342973 C38.7376198,6.74574375 38.9542889,6.78690075 39.1952081,6.78690075 C39.4356001,6.78690075 39.6522692,6.74574375 39.8457426,6.66342973 C40.0397432,6.58059474 40.2031676,6.46858516 40.3370702,6.32635904 C40.4699184,6.18517487 40.5737719,6.01377416 40.6470493,5.81215692 C40.7208539,5.61053968 40.757229,5.39120929 40.757229,5.15364478 C40.757229,4.91608028 40.7208539,4.69674989 40.6470493,4.49513265 C40.5737719,4.29455735 40.4699184,4.12263567 40.3370702,3.98040955 C40.2031676,3.83922538 40.0397432,3.72669483 39.8457426,3.64438081 C39.6522692,3.56154582 39.4356001,3.52038881 39.1952081,3.52038881 C38.9542889,3.52038881 38.7376198,3.56154582 38.5441464,3.64438081 C38.3501459,3.72669483 38.1867215,3.83922538 38.0533461,3.98040955 C37.9194435,4.12263567 37.8161172,4.29455735 37.7428398,4.49513265 C37.6690352,4.69674989 37.6326601,4.91608028 37.6326601,5.15364478 L37.6326601,5.15364478 L37.6326601,5.15364478 Z" id="Fill-51"></path>
                                <polyline id="Fill-52" points="42.0799122 2.8076953 43.0915619 2.8076953 44.1580378 6.31177174 44.1780705 6.31177174 45.3151879 2.8076953 46.2767559 2.8076953 47.478716 6.31177174 47.4987486 6.31177174 48.5103983 2.8076953 49.4719663 2.8076953 47.9394673 7.49959427 47.027981 7.49959427 45.7706675 3.99551782 45.7501077 3.99551782 44.6040282 7.49959427 43.6424602 7.49959427 42.0799122 2.8076953"></polyline>
                                <path d="M50.0523865,2.8076953 L50.9538565,2.8076953 L50.9538565,3.53028733 L50.9738892,3.53028733 C51.0877591,3.27917748 51.2843955,3.07703926 51.5648529,2.92178878 C51.8458374,2.76653829 52.1695231,2.68891304 52.5364372,2.68891304 C52.7636498,2.68891304 52.9824276,2.72329738 53.1922435,2.793108 C53.4031137,2.86239765 53.5865707,2.96971846 53.743669,3.11454945 C53.9002401,3.25938044 54.0251807,3.44641039 54.1190179,3.6735554 C54.2128551,3.90174236 54.2597738,4.17004438 54.2597738,4.48054535 L54.2597738,7.49959427 L53.3577766,7.49959427 L53.3577766,4.72800838 C53.3577766,4.51024092 53.3277276,4.32373194 53.2676296,4.16848145 C53.2080587,4.01375194 53.1274009,3.88819701 53.0272376,3.79285863 C52.9270742,3.69699927 52.81215,3.62770962 52.6819376,3.58446871 C52.5511981,3.54174878 52.4167684,3.52038881 52.2760125,3.52038881 C52.0893924,3.52038881 51.9159517,3.55008437 51.7556904,3.6094755 C51.5949019,3.6693876 51.4546732,3.76264209 51.3344772,3.89132286 C51.2142812,4.02000364 51.1209711,4.18358972 51.0540199,4.38156014 C50.9875957,4.57953056 50.9538565,4.81396922 50.9538565,5.08435514 L50.9538565,7.49959427 L50.0523865,7.49959427 L50.0523865,2.8076953" id="Fill-53"></path>
                                <polygon id="Fill-54" points="55.4917828 0.0163123623 56.3932528 0.0163123623 56.3932528 7.49959427 55.4917828 7.49959427"></polygon>
                                <path d="M57.3948862,5.15364478 C57.3948862,4.81084337 57.4597287,4.49044387 57.5899411,4.19348824 C57.7201534,3.89653261 57.8988659,3.63604521 58.1260785,3.41150508 C58.3527639,3.18748592 58.6200419,3.01087546 58.926858,2.88219469 C59.2342013,2.75351392 59.5647403,2.68891304 59.918475,2.68891304 C60.2727369,2.68891304 60.6032759,2.75351392 60.9106192,2.88219469 C61.2174353,3.01087546 61.4847133,3.18748592 61.7113987,3.41150508 C61.9386113,3.63604521 62.1173238,3.89653261 62.2475362,4.19348824 C62.3777485,4.49044387 62.4425911,4.81084337 62.4425911,5.15364478 C62.4425911,5.49696717 62.3777485,5.81840862 62.2475362,6.11901107 C62.1173238,6.41909255 61.9386113,6.67957995 61.7113987,6.90099423 C61.4847133,7.12188755 61.2174353,7.2964141 60.9106192,7.42509487 C60.6032759,7.55377565 60.2727369,7.61837652 59.918475,7.61837652 C59.5647403,7.61837652 59.2342013,7.55377565 58.926858,7.42509487 C58.6200419,7.2964141 58.3527639,7.12188755 58.1260785,6.90099423 C57.8988659,6.67957995 57.7201534,6.41909255 57.5899411,6.11901107 C57.4597287,5.81840862 57.3948862,5.49696717 57.3948862,5.15364478 L57.3948862,5.15364478 L57.3948862,5.15364478 Z M58.355927,5.15364478 C58.355927,5.39120929 58.3928293,5.61053968 58.4661067,5.81215692 C58.5399112,6.01377416 58.6432376,6.18517487 58.776613,6.32635904 C58.9105156,6.46858516 59.07394,6.58059474 59.2679405,6.66342973 C59.4614139,6.74574375 59.678083,6.78690075 59.918475,6.78690075 C60.158867,6.78690075 60.3760633,6.74574375 60.5700639,6.66342973 C60.7635373,6.58059474 60.9269617,6.46858516 61.0603371,6.32635904 C61.1942396,6.18517487 61.297566,6.01377416 61.3713706,5.81215692 C61.444648,5.61053968 61.4815502,5.39120929 61.4815502,5.15364478 C61.4815502,4.91608028 61.444648,4.69674989 61.3713706,4.49513265 C61.297566,4.29455735 61.1942396,4.12263567 61.0603371,3.98040955 C60.9269617,3.83922538 60.7635373,3.72669483 60.5700639,3.64438081 C60.3760633,3.56154582 60.158867,3.52038881 59.918475,3.52038881 C59.678083,3.52038881 59.4614139,3.56154582 59.2679405,3.64438081 C59.07394,3.72669483 58.9105156,3.83922538 58.776613,3.98040955 C58.6432376,4.12263567 58.5399112,4.29455735 58.4661067,4.49513265 C58.3928293,4.69674989 58.355927,4.91608028 58.355927,5.15364478 L58.355927,5.15364478 L58.355927,5.15364478 Z" id="Fill-55"></path>
                                <path d="M63.3941428,3.38180952 C63.6477142,3.15049671 63.9413509,2.97753308 64.2755801,2.86239765 C64.6092822,2.74674125 64.9429842,2.68891304 65.2772135,2.68891304 C65.6240949,2.68891304 65.9235306,2.73215395 66.1734117,2.81759382 C66.4238201,2.90355466 66.6294185,3.01869009 66.7896798,3.16404205 C66.9499412,3.30939402 67.0685556,3.47558498 67.1449961,3.66417785 C67.2219637,3.85172878 67.2604475,4.04865725 67.2604475,4.25287937 L67.2604475,6.64832146 C67.2604475,6.81347047 67.2636106,6.96507413 67.2699367,7.10365343 C67.2767899,7.24223272 67.2873335,7.37456032 67.3005128,7.49959427 L66.4992062,7.49959427 C66.4786463,7.26202976 66.4691572,7.02446526 66.4691572,6.78690075 L66.4491245,6.78690075 C66.2487978,7.09062906 66.0115689,7.30527067 65.7379648,7.43030462 C65.4643608,7.55533857 65.1470011,7.61837652 64.7858859,7.61837652 C64.5660538,7.61837652 64.3557108,7.58868096 64.1553841,7.52928983 C63.9545303,7.46989871 63.779508,7.38133299 63.629263,7.26202976 C63.479018,7.14324751 63.3604035,6.99633262 63.2734196,6.82128509 C63.1869628,6.64675854 63.1437344,6.44409934 63.1437344,6.21278653 C63.1437344,5.90905823 63.2117401,5.65534351 63.3488057,5.45060041 C63.4858713,5.2463783 63.6724914,5.07914539 63.9097204,4.95046461 C64.1469493,4.82178384 64.4242436,4.73009228 64.7416032,4.67330602 C65.0584357,4.61756172 65.3974095,4.58942908 65.7579975,4.58942908 L66.4190755,4.58942908 L66.4190755,4.39145866 C66.4190755,4.27267641 66.3953526,4.15389416 66.348434,4.03511191 C66.3025697,3.91632965 66.2319282,3.80900885 66.1386182,3.71314948 C66.0447809,3.6178111 65.927748,3.54174878 65.7880465,3.48600447 C65.6478178,3.4297392 65.4807032,3.40160656 65.2872298,3.40160656 C65.1137891,3.40160656 64.9619625,3.41827775 64.831223,3.45057819 C64.7010107,3.48444155 64.5823962,3.52507758 64.4759068,3.57509116 C64.3688902,3.62458377 64.2718899,3.68241197 64.1854331,3.74805479 C64.0984492,3.81421859 64.0151554,3.87673557 63.9350248,3.93612669 L63.3941428,3.38180952 L63.3941428,3.38180952 L63.3941428,3.38180952 Z M65.9382915,5.24273147 C65.7242582,5.24273147 65.5060076,5.25471389 65.281958,5.27711581 C65.0584357,5.30055967 64.8544188,5.34484253 64.6714889,5.41100633 C64.4875046,5.47717013 64.3372596,5.56938267 64.2202267,5.68816492 C64.1037209,5.80694717 64.0452044,5.95907181 64.0452044,6.14349689 C64.0452044,6.41440378 64.136933,6.60872738 64.3209172,6.72750963 C64.5038471,6.84629188 64.7526739,6.90568301 65.0668705,6.90568301 C65.3141157,6.90568301 65.5239316,6.864526 65.6978995,6.78169101 C65.8713402,6.69937699 66.0115689,6.59257716 66.1185855,6.46024956 C66.2250749,6.32844294 66.3025697,6.18152805 66.348434,6.01950489 C66.3953526,5.85852368 66.4190755,5.69806344 66.4190755,5.5396871 L66.4190755,5.24273147 L65.9382915,5.24273147 L65.9382915,5.24273147 L65.9382915,5.24273147 Z" id="Fill-56"></path>
                                <path d="M73.1305461,7.49959427 L72.2290761,7.49959427 L72.2290761,6.82649484 L72.2090434,6.82649484 C72.0345484,7.07708371 71.7962651,7.27244926 71.492612,7.41050758 C71.1884318,7.54908687 70.8763439,7.61837652 70.5558212,7.61837652 C70.1889071,7.61837652 69.8567866,7.55533857 69.5594596,7.43030462 C69.2621327,7.30527067 69.0080341,7.13022314 68.7982183,6.90568301 C68.5873481,6.68166385 68.4260324,6.42065548 68.3121625,6.12369984 C68.1988198,5.82674421 68.142412,5.50373984 68.142412,5.15364478 C68.142412,4.8040707 68.1988198,4.47898243 68.3121625,4.17890095 C68.4260324,3.87829849 68.5873481,3.6178111 68.7982183,3.39639681 C69.0080341,3.1755035 69.2621327,3.00253987 69.5594596,2.87698494 C69.8567866,2.75195099 70.1889071,2.68891304 70.5558212,2.68891304 C70.8963766,2.68891304 71.2174264,2.75976562 71.5173893,2.90199173 C71.8178793,3.04369688 72.0482549,3.23645755 72.2090434,3.48079473 L72.2290761,3.48079473 L72.2290761,0.0163123623 L73.1305461,0.0163123623 L73.1305461,7.49959427 L73.1305461,7.49959427 L73.1305461,7.49959427 Z M70.6660009,6.78690075 C70.9063929,6.78690075 71.1235892,6.74574375 71.3170626,6.66342973 C71.510536,6.58059474 71.6744875,6.46858516 71.8078629,6.32635904 C71.9417655,6.18517487 72.0450919,6.01377416 72.1188964,5.81215692 C72.1916467,5.61053968 72.2290761,5.39120929 72.2290761,5.15364478 C72.2290761,4.91608028 72.1916467,4.69674989 72.1188964,4.49513265 C72.0450919,4.29455735 71.9417655,4.12263567 71.8078629,3.98040955 C71.6744875,3.83922538 71.510536,3.72669483 71.3170626,3.64438081 C71.1235892,3.56154582 70.9063929,3.52038881 70.6660009,3.52038881 C70.4256089,3.52038881 70.2089398,3.56154582 70.0154664,3.64438081 C69.8209387,3.72669483 69.6580414,3.83922538 69.5241389,3.98040955 C69.3907635,4.12263567 69.2874371,4.29455735 69.2136325,4.49513265 C69.139828,4.69674989 69.1034529,4.91608028 69.1034529,5.15364478 C69.1034529,5.39120929 69.139828,5.61053968 69.2136325,5.81215692 C69.2874371,6.01377416 69.3907635,6.18517487 69.5241389,6.32635904 C69.6580414,6.46858516 69.8209387,6.58059474 70.0154664,6.66342973 C70.2089398,6.74574375 70.4256089,6.78690075 70.6660009,6.78690075 L70.6660009,6.78690075 L70.6660009,6.78690075 Z" id="Fill-57"></path>
                                <path d="M76.6462792,5.15364478 C76.6462792,4.81084337 76.7111218,4.49044387 76.8413341,4.19348824 C76.9715465,3.89653261 77.1502589,3.63604521 77.3769444,3.41150508 C77.604157,3.18748592 77.8714349,3.01087546 78.1782511,2.88219469 C78.4855943,2.75351392 78.8161333,2.68891304 79.1698681,2.68891304 C79.52413,2.68891304 79.854669,2.75351392 80.1614851,2.88219469 C80.4688284,3.01087546 80.7355792,3.18748592 80.9627918,3.41150508 C81.1900044,3.63604521 81.3687169,3.89653261 81.4989292,4.19348824 C81.6291415,4.49044387 81.6939841,4.81084337 81.6939841,5.15364478 C81.6939841,5.49696717 81.6291415,5.81840862 81.4989292,6.11901107 C81.3687169,6.41909255 81.1900044,6.67957995 80.9627918,6.90099423 C80.7355792,7.12188755 80.4688284,7.2964141 80.1614851,7.42509487 C79.854669,7.55377565 79.52413,7.61837652 79.1698681,7.61837652 C78.8161333,7.61837652 78.4855943,7.55377565 78.1782511,7.42509487 C77.8714349,7.2964141 77.604157,7.12188755 77.3769444,6.90099423 C77.1502589,6.67957995 76.9715465,6.41909255 76.8413341,6.11901107 C76.7111218,5.81840862 76.6462792,5.49696717 76.6462792,5.15364478 L76.6462792,5.15364478 L76.6462792,5.15364478 Z M77.60732,5.15364478 C77.60732,5.39120929 77.6436952,5.61053968 77.7174997,5.81215692 C77.7913043,6.01377416 77.8946307,6.18517487 78.0280061,6.32635904 C78.1619086,6.46858516 78.3248058,6.58059474 78.5188064,6.66342973 C78.712807,6.74574375 78.9294761,6.78690075 79.1698681,6.78690075 C79.4102601,6.78690075 79.6274564,6.74574375 79.8209298,6.66342973 C80.0144031,6.58059474 80.1783547,6.46858516 80.3117301,6.32635904 C80.4456327,6.18517487 80.548959,6.01377416 80.6227636,5.81215692 C80.6955138,5.61053968 80.7329433,5.39120929 80.7329433,5.15364478 C80.7329433,4.91608028 80.6955138,4.69674989 80.6227636,4.49513265 C80.548959,4.29455735 80.4456327,4.12263567 80.3117301,3.98040955 C80.1783547,3.83922538 80.0144031,3.72669483 79.8209298,3.64438081 C79.6274564,3.56154582 79.4102601,3.52038881 79.1698681,3.52038881 C78.9294761,3.52038881 78.712807,3.56154582 78.5188064,3.64438081 C78.3248058,3.72669483 78.1619086,3.83922538 78.0280061,3.98040955 C77.8946307,4.12263567 77.7913043,4.29455735 77.7174997,4.49513265 C77.6436952,4.69674989 77.60732,4.91608028 77.60732,5.15364478 L77.60732,5.15364478 L77.60732,5.15364478 Z" id="Fill-58"></path>
                                <path d="M82.624976,2.8076953 L83.526446,2.8076953 L83.526446,3.53028733 L83.5464787,3.53028733 C83.6598214,3.27917748 83.856985,3.07703926 84.1379695,2.92178878 C84.4184268,2.76653829 84.7421126,2.68891304 85.1090267,2.68891304 C85.3362393,2.68891304 85.5550171,2.72329738 85.7648329,2.793108 C85.9757031,2.86239765 86.1591602,2.96971846 86.3162585,3.11454945 C86.4728296,3.25938044 86.5977702,3.44641039 86.6916074,3.6735554 C86.7854446,3.90174236 86.8323632,4.17004438 86.8323632,4.48054535 L86.8323632,7.49959427 L85.930366,7.49959427 L85.930366,4.72800838 C85.930366,4.51024092 85.900317,4.32373194 85.840219,4.16848145 C85.7806482,4.01375194 85.6999904,3.88819701 85.599827,3.79285863 C85.5001909,3.69699927 85.3847394,3.62770962 85.2545271,3.58446871 C85.1243148,3.54174878 84.9893579,3.52038881 84.848602,3.52038881 C84.6619819,3.52038881 84.4885412,3.55008437 84.3282798,3.6094755 C84.1674913,3.6693876 84.0277898,3.76264209 83.9070667,3.89132286 C83.7868707,4.02000364 83.6935606,4.18358972 83.6271365,4.38156014 C83.5601852,4.57953056 83.526446,4.81396922 83.526446,5.08435514 L83.526446,7.49959427 L82.624976,7.49959427 L82.624976,2.8076953" id="Fill-59"></path>
                                <path d="M93.1226207,3.57977994 L91.8299865,3.57977994 L91.8299865,5.70796196 C91.8299865,5.83976858 91.8331495,5.97001228 91.8400028,6.09921403 C91.8468561,6.2278948 91.8716333,6.34303023 91.9148617,6.44566227 C91.9591445,6.54777333 92.0250414,6.63008734 92.1157156,6.69260432 C92.2058626,6.75564227 92.3376564,6.78690075 92.5110972,6.78690075 C92.6181138,6.78690075 92.7282934,6.77700223 92.8416362,6.75720519 C92.9549789,6.73740815 93.0583053,6.70146089 93.1521425,6.64832146 L93.1521425,7.46000019 C93.0456531,7.51939131 92.9070059,7.56054832 92.7367283,7.58347121 C92.5664506,7.60691508 92.4346567,7.61837652 92.3408195,7.61837652 C91.993938,7.61837652 91.7250786,7.57044684 91.5347682,7.47458748 C91.3444579,7.37924909 91.2042292,7.25525709 91.1140822,7.10365343 C91.0239352,6.95204976 90.9706905,6.78169101 90.9538209,6.59414008 C90.9369513,6.40554721 90.9285165,6.21591238 90.9285165,6.02471463 L90.9285165,3.57977994 L89.887345,3.57977994 L89.887345,2.8076953 L90.9285165,2.8076953 L90.9285165,1.491192 L91.8299865,1.491192 L91.8299865,2.8076953 L93.1226207,2.8076953 L93.1226207,3.57977994" id="Fill-60"></path>
                                <path d="M94.0841887,0.0163123623 L94.9856587,0.0163123623 L94.9856587,3.53028733 L95.0056914,3.53028733 C95.1190341,3.27917748 95.3161977,3.07703926 95.5966551,2.92178878 C95.8771124,2.76653829 96.2007981,2.68891304 96.5682394,2.68891304 C96.7949249,2.68891304 97.0137027,2.72329738 97.2240457,2.793108 C97.4343887,2.86239765 97.6183729,2.96971846 97.7754712,3.11454945 C97.9320423,3.25938044 98.0569829,3.44641039 98.1508201,3.6735554 C98.2441302,3.90174236 98.2910488,4.17004438 98.2910488,4.48054535 L98.2910488,7.49959427 L97.3890516,7.49959427 L97.3890516,4.72800838 C97.3890516,4.51024092 97.3595298,4.32373194 97.2989046,4.16848145 C97.2393338,4.01375194 97.1592031,3.88819701 97.0585126,3.79285863 C96.9588764,3.69699927 96.843425,3.62770962 96.7132127,3.58446871 C96.5830003,3.54174878 96.4480434,3.52038881 96.3072876,3.52038881 C96.1206675,3.52038881 95.9472267,3.55008437 95.7869654,3.6094755 C95.6267041,3.6693876 95.4864754,3.76264209 95.3657522,3.89132286 C95.2460834,4.02000364 95.1522462,4.18358972 95.0858221,4.38156014 C95.0188708,4.57953056 94.9856587,4.81396922 94.9856587,5.08435514 L94.9856587,7.49959427 L94.0841887,7.49959427 L94.0841887,0.0163123623" id="Fill-61"></path>
                                <path d="M100.133527,5.48029598 C100.133527,5.68503907 100.178864,5.87102707 100.269011,6.03930193 C100.359158,6.20809776 100.477773,6.35136583 100.624327,6.47014808 C100.771409,6.58893033 100.941687,6.68166385 101.135688,6.74730667 C101.329161,6.81347047 101.529488,6.84629188 101.73614,6.84629188 C102.017125,6.84629188 102.26068,6.78169101 102.467333,6.65353121 C102.674513,6.52485043 102.864823,6.35501265 103.038264,6.14349689 L103.719374,6.65821998 C103.218558,7.29797703 102.517942,7.61837652 101.616472,7.61837652 C101.242177,7.61837652 100.903203,7.55533857 100.59955,7.43030462 C100.29537,7.30527067 100.038635,7.13178607 99.8282924,6.91037178 C99.6179494,6.68947847 99.4555794,6.42899107 99.3422366,6.12838862 C99.2283667,5.82830714 99.171959,5.50373984 99.171959,5.15364478 C99.171959,4.8040707 99.2336385,4.47898243 99.3575247,4.17890095 C99.4808838,3.87829849 99.6511614,3.6178111 99.8678306,3.39639681 C100.085027,3.1755035 100.344397,3.00253987 100.64436,2.87698494 C100.94485,2.75195099 101.272226,2.68891304 101.625961,2.68891304 C102.046647,2.68891304 102.40249,2.76132854 102.692964,2.90668051 C102.983437,3.05203247 103.222248,3.2416673 103.408868,3.47558498 C103.596015,3.71054461 103.730972,3.97415785 103.814793,4.26798764 C103.898087,4.56129644 103.939734,4.86033598 103.939734,5.1635433 L103.939734,5.48029598 L100.133527,5.48029598 L100.133527,5.48029598 L100.133527,5.48029598 Z M102.978693,4.76760246 C102.971312,4.56963204 102.940209,4.38781184 102.883274,4.2231838 C102.826339,4.05855577 102.741464,3.91476673 102.628121,3.79285863 C102.514251,3.67042955 102.371914,3.57509116 102.202163,3.50580152 C102.031886,3.43599089 101.833141,3.40160656 101.605928,3.40160656 C101.385569,3.40160656 101.18366,3.44276357 101.000203,3.52507758 C100.816219,3.60791258 100.660702,3.71471241 100.53418,3.84704001 C100.407658,3.97884663 100.308549,4.12576152 100.238435,4.28778468 C100.168848,4.44980784 100.133527,4.60922613 100.133527,4.76760246 L102.978693,4.76760246 L102.978693,4.76760246 L102.978693,4.76760246 Z" id="Fill-62"></path>
                            </g>
                        </g>
                    </g>
                </g>
            </g>
        </g>
    </g>
</svg>