<?xml version="1.0" encoding="UTF-8"?>
<svg width="26px" height="26px" viewBox="0 0 26 26" version="1.1" xmlns="http://www.w3.org/2000/svg" xmlns:xlink="http://www.w3.org/1999/xlink">
    <!-- Generator: sketchtool 51.2 (57519) - http://www.bohemiancoding.com/sketch -->
    <title>82862554-C90D-43BD-A4AA-8F7FB4C77676</title>
    <desc>Created with sketchtool.</desc>
    <defs></defs>
    <g id="Black-/-White" stroke="none" stroke-width="1" fill="none" fill-rule="evenodd" opacity="0.495290179" stroke-linecap="round" stroke-linejoin="round">
        <g id="Black" transform="translate(-650.000000, -4449.000000)" fill="#FFFFFF" stroke="#FFFFFF">
            <g id="sub-+-footer" transform="translate(387.000000, 4189.000000)">
                <g id="social" transform="translate(264.000000, 261.000000)">
                    <path d="M22.56,0 L1.44,0 C0.64416,0 0,0.64416 0,1.44 L0,22.56 C0,23.35584 0.64416,24 1.44,24 L12.48,24 L12.48,16.32 L9.6,16.32 L9.6,12.48 L12.48,12.48 L12.48,9.6 C12.48,6.94944 14.62944,4.8 17.28,4.8 L20.16,4.8 L20.16,8.64 L18.24,8.64 C17.18016,8.64 16.32,9.50016 16.32,10.56 L16.32,12.48 L20.16,12.48 L19.68,16.32 L16.32,16.32 L16.32,24 L22.56,24 C23.35584,24 24,23.35584 24,22.56 L24,1.44 C24,0.64416 23.35584,0 22.56,0 Z" id="Stroke-87"></path>
                </g>
            </g>
        </g>
    </g>
</svg>