<?xml version="1.0" encoding="UTF-8"?>
<svg width="26px" height="26px" viewBox="0 0 26 26" version="1.1" xmlns="http://www.w3.org/2000/svg" xmlns:xlink="http://www.w3.org/1999/xlink">
    <!-- Generator: sketchtool 51.2 (57519) - http://www.bohemiancoding.com/sketch -->
    <title>278CA261-FA45-4514-B2E6-BC247E8EA5C1</title>
    <desc>Created with sketchtool.</desc>
    <defs></defs>
    <g id="Black-/-White" stroke="none" stroke-width="1" fill="none" fill-rule="evenodd" opacity="0.495290179" stroke-linecap="round" stroke-linejoin="round">
        <g id="Black" transform="translate(-704.000000, -4449.000000)" stroke="#FFFFFF" stroke-width="2">
            <g id="sub-+-footer" transform="translate(387.000000, 4189.000000)">
                <g id="social" transform="translate(264.000000, 261.000000)">
                    <g id="inst" transform="translate(54.000000, 0.000000)">
                        <path d="M24,18.24 C24,21.42048 21.42048,24 18.24,24 L5.76,24 C2.57952,24 0,21.42048 0,18.24 L0,5.76 C0,2.57952 2.57952,0 5.76,0 L18.24,0 C21.42048,0 24,2.57952 24,5.76 L24,18.24 Z" id="Stroke-38"></path>
                        <path d="M18,12 C18,15.3138462 15.3138462,18 12,18 C8.68615385,18 6,15.3138462 6,12 C6,8.68615385 8.68615385,6 12,6 C15.3138462,6 18,8.68615385 18,12 Z" id="Stroke-40"></path>
                        <path d="M21,4 C21,4.552 20.552,5 20,5 C19.448,5 19,4.552 19,4 C19,3.448 19.448,3 20,3 C20.552,3 21,3.448 21,4 Z" id="Stroke-42"></path>
                    </g>
                </g>
            </g>
        </g>
    </g>
</svg>