<?xml version="1.0" encoding="UTF-8"?>
<svg width="28px" height="43px" viewBox="0 0 28 43" version="1.1" xmlns="http://www.w3.org/2000/svg" xmlns:xlink="http://www.w3.org/1999/xlink">
    <!-- Generator: sketchtool 51.2 (57519) - http://www.bohemiancoding.com/sketch -->
    <title>C105E23E-5659-4988-934F-F50509E876C0</title>
    <desc>Created with sketchtool.</desc>
    <defs></defs>
    <g id="Black-/-White" stroke="none" stroke-width="1" fill="none" fill-rule="evenodd">
        <g id="Black" transform="translate(-1024.000000, -1778.000000)" fill="#F1F1F1" fill-rule="nonzero">
            <g id="HOW-IT-WORK" transform="translate(57.000000, 1506.000000)">
                <g id="3" transform="translate(949.000000, 272.000000)">
                    <path d="M35.5221371,18.6850024 C35.7864459,18.6850024 35.994117,18.9909635 35.9689448,19.3566242 L35.0699354,34.2616529 C35.0213889,35.1235675 34.1214805,35.0203367 34.1763201,34.1596658 L35.0753295,19.2546372 C35.0897136,18.9287763 35.2856977,18.6850024 35.5212381,18.6850024 L35.5221371,18.6850024 Z M25.6372832,18.6850024 C25.3729744,18.6850024 25.1653032,18.9909635 25.1904755,19.3566242 L26.0894849,34.2616529 C26.1380314,35.1235675 27.0379398,35.0203367 26.9831002,34.1596658 L26.0840908,19.2546372 C26.0697067,18.9287763 25.8737226,18.6850024 25.6381822,18.6850024 L25.6372832,18.6850024 Z M27.3865377,1.56409439 C26.3070204,1.8133206 25.6358861,2.96865184 25.9017274,4.12013696 L26.7102471,7.62222067 L19.4871995,9.28979262 C19.1234205,9.37377761 18.9026788,9.75377594 18.9922627,10.1418068 C19.0818467,10.5298377 19.4468284,10.7746111 19.8106074,10.6906261 L44.7629538,4.92992302 C45.1267328,4.84593803 45.3474746,4.4659397 45.2578906,4.07790883 C45.1683066,3.68987795 44.8033249,3.44510455 44.4395459,3.52908953 L37.2164983,5.19666148 L36.4079785,1.69457777 C36.1421373,0.543092645 35.0324619,-0.201106316 33.9529446,0.0481198912 L27.3865377,1.56409439 Z M27.2570472,3.23091544 L33.0938534,1.88338255 C33.4277187,1.80630367 33.7352084,1.99844457 33.8122873,2.33230988 L34.4860537,5.25071297 L27.4818863,6.86775244 L26.8081199,3.94934935 C26.731041,3.61548403 26.9231819,3.30799432 27.2570472,3.23091544 Z M20.0264473,11.4965966 C18.916295,11.4965966 17.8977572,12.3532899 18.0082335,13.4658454 L20.7027779,40.1977295 C20.7997815,41.1651691 21.6108394,42.0473213 22.7209916,42.0473213 L40.2355301,42.0473213 C41.3456824,42.0473213 42.1567402,41.1664421 42.2537438,40.1977295 L44.9482882,13.4658454 C45.0587645,12.3532899 44.0402267,11.4965966 42.9300745,11.4965966 L20.0264473,11.4965966 Z M20.4502234,13.2936981 L42.5062983,13.2936981 C42.8747645,13.2936981 43.1861444,13.5757986 43.1576012,13.864196 L40.5627689,40.3111206 C40.5199542,40.7418276 40.2799322,41 39.911466,41 L23.0450558,41 C22.6765896,41 22.4352702,40.7418276 22.3937529,40.3111206 L19.7989205,13.864196 C19.7703774,13.5745392 20.0817572,13.2936981 20.4502234,13.2936981 Z" id="Shape"></path>
                </g>
            </g>
        </g>
    </g>
</svg>