<?xml version="1.0" encoding="UTF-8"?>
<svg width="31px" height="26px" viewBox="0 0 31 26" version="1.1" xmlns="http://www.w3.org/2000/svg" xmlns:xlink="http://www.w3.org/1999/xlink">
    <!-- Generator: sketchtool 51.2 (57519) - http://www.bohemiancoding.com/sketch -->
    <title>B21368D9-32F0-4647-A33E-B7CB782B3BB8</title>
    <desc>Created with sketchtool.</desc>
    <defs></defs>
    <g id="Black-/-White" stroke="none" stroke-width="1" fill="none" fill-rule="evenodd" opacity="0.495290179" stroke-linecap="round" stroke-linejoin="round">
        <g id="Black" transform="translate(-759.000000, -4449.000000)" fill="#FFFFFF" stroke="#FFFFFF">
            <g id="sub-+-footer" transform="translate(387.000000, 4189.000000)">
                <g id="social" transform="translate(264.000000, 261.000000)">
                    <path d="M109.956207,1.26260808 C112.467931,4.35025875 116.964828,7.26469211 123,7.57877892 C122.666897,6.23791001 122.634828,2.59721613 125.266552,1.08521686 C126.443793,0.407999801 127.557931,0 128.869655,0 C130.518621,0 131.872759,0.546782342 133.312759,1.87930343 C134.483793,1.71443395 136.673793,0.80347787 137.193103,0.445565 C136.854828,1.70086874 135.501724,3.31304186 134.524138,3.6959982 C135.422069,3.69391124 137.394828,3.17425932 138,2.86747686 C137.161034,4.17391101 135.696207,5.42399736 134.894483,5.9426058 C135.822414,13.9888628 128.417586,23.9895535 117.782069,23.9999883 C114.744828,24.0031187 111.444828,23.3780756 108,21.4737287 C111.398276,21.858772 115.039655,20.7923377 117.130345,18.947469 C114.493448,18.8890343 111.823448,17.1683395 110.608966,14.5262538 C111.93,14.9238188 113.147586,15.1262535 113.869655,14.5262538 C112.638621,14.3926886 108.651724,12.2775592 108.651724,8.18190906 C109.568276,8.9165174 110.887241,9.67512572 111.913448,9.47373452 C110.235517,8.51060455 107.796207,4.84695416 109.956207,1.26260808 Z" id="Stroke-89"></path>
                </g>
            </g>
        </g>
    </g>
</svg>